<?xml version="1.0" encoding="UTF-8"?>
<svg id="Layer_1" xmlns="http://www.w3.org/2000/svg" version="1.1" viewBox="0 0 128 128">
  <!-- Generator: Adobe Illustrator 30.1.0, SVG Export Plug-In . SVG Version: 2.1.1 Build 136)  -->
  <defs>
    <style>
      .st0 {
        fill: #fff;
      }

      .st1 {
        fill: #bd9f7d;
      }

      .st2 {
        fill: #231f20;
      }
    </style>
  </defs>
  <path class="st0" d="M56.3,106.6c-8.4,2.2-17.3-1.1-22.2-8.2-3-4.2-4.2-9.4-3.3-14.5.2-.8.4-1.6.6-2.4l.5-1.5,1.3,1c3.1,2.3,6.5,4,10.2,5.1l1,.3v1c-.2,1.4.2,2.8,1,3.9,1.5,2.1,4.2,3.1,6.7,2.5.6-.2,1.1-.4,1.6-.7l26.1-16.6c1.3-.8,2.2-2.1,2.4-3.6.3-1.5,0-3.1-1-4.4-1.5-2.2-4.2-3.1-6.7-2.5-.6.2-1.1.4-1.6.7l-10,6.3c-1.6,1-3.4,1.8-5.3,2.3-8.4,2.2-17.3-1.1-22.2-8.2-3-4.2-4.2-9.4-3.3-14.5.9-5,3.8-9.4,8.1-12.1l26.1-16.6c1.6-1,3.4-1.8,5.3-2.3,8.4-2.2,17.3,1.1,22.2,8.2,3,4.2,4.2,9.4,3.3,14.5-.2.8-.4,1.6-.6,2.4l-.5,1.5-1.3-1c-3.1-2.3-6.5-4-10.2-5.1l-1-.3v-1c.2-1.4-.2-2.7-1-3.9-1.5-2.2-4.2-3.1-6.7-2.5-.6.2-1.1.4-1.6.7l-26.1,16.6c-1.3.8-2.2,2.1-2.4,3.6-.3,1.5,0,3.1,1,4.4,1.5,2.2,4.2,3.1,6.7,2.5.6-.2,1.1-.4,1.6-.7l10-6.3c1.6-1,3.4-1.8,5.3-2.3,8.4-2.2,17.3,1.1,22.2,8.2,3,4.2,4.2,9.4,3.3,14.5-.9,5-3.8,9.4-8.1,12.1l-26.1,16.6c-1.6,1-3.4,1.8-5.3,2.3"/>
  <rect class="st1" width="128" height="128"/>
  <path class="st2" d="M68.4,112.7c-4.2,0-7.8-.5-10.8-1.6-3-1.1-5.4-2.1-7.3-3.2s-3.1-1.6-3.7-1.6-1.1.3-1.4.9c-.3.6-.5,1.4-.7,2.3s-.5,1.6-.8,2.3-.8.9-1.5.9-.9-.2-1.3-.5-.6-.9-.8-1.7l-5.3-20.4c-.2-.7-.1-1.3,0-1.7.2-.5.7-.9,1.4-1.1s1.2-.2,1.7,0c.5.3.9.8,1.2,1.5,2.2,4.6,4.9,8.3,7.9,11.2s6.4,5.1,10,6.4c3.6,1.4,7.2,2.1,10.9,2.1,5.4,0,9.7-1.5,12.6-4.6s4.5-6.9,4.6-11.6c0-2.9-.6-5.6-1.9-8.2-1.3-2.6-3.7-5.1-7.3-7.4-3.6-2.4-8.8-4.8-15.6-7.2-6.5-2.3-11.8-5-15.7-7.8-4-2.8-6.9-6-8.7-9.6-1.8-3.6-2.7-7.5-2.7-12s1.2-9.5,3.5-13.2c2.3-3.7,5.6-6.6,9.7-8.7,4.2-2,8.9-3.1,14.3-3.1s8,.5,10.7,1.5c2.7,1,4.9,2,6.4,3.1,1.6,1,2.8,1.5,3.7,1.5s1.5-.5,1.6-1.5.3-2,.5-3c.2-1,.8-1.5,1.9-1.5s1,.2,1.4.5.6,1,.9,1.9l6.7,21.5c.2.8.2,1.4,0,2s-.7,1-1.4,1.2c-.6.2-1.2.1-1.7,0-.5-.2-.9-.7-1.4-1.4-2.5-5.3-5.3-9.5-8.3-12.6s-6.3-5.4-9.7-6.7c-3.4-1.4-7-2.1-10.7-2.1-5.6,0-10.1,1.6-13.5,4.8-3.4,3.2-5.1,7.5-5.1,12.9s.7,6,2.1,8.7,3.8,5.3,7.3,7.7c3.5,2.4,8.4,4.9,14.8,7.3,6.9,2.6,12.5,5.3,16.5,8.1,4,2.8,6.9,5.9,8.6,9.3,1.7,3.3,2.5,7.1,2.5,11.3,0,4.2-1,8.1-3,11.6s-4.9,6.3-8.7,8.4-8.5,3.2-14.2,3.2h0Z"/>
</svg>